<?xml version="1.0" standalone="no"?>
<!DOCTYPE svg PUBLIC "-//W3C//DTD SVG 20010904//EN"
 "http://www.w3.org/TR/2001/REC-SVG-20010904/DTD/svg10.dtd">
<svg version="1.0" xmlns="http://www.w3.org/2000/svg"
 width="1319.000000pt" height="1319.000000pt" viewBox="0 0 1319.000000 1319.000000"
 preserveAspectRatio="xMidYMid meet">
<metadata>
Created by potrace 1.14, written by Peter Selinger 2001-2017
</metadata>
<g transform="translate(0.000000,1319.000000) scale(0.100000,-0.100000)"
fill="#000000" stroke="none">
<path d="M6838 7559 c-367 -38 -755 -164 -1073 -349 -96 -55 -124 -67 -156
-65 -42 3 -140 14 -166 19 -11 3 -44 7 -74 11 -30 3 -65 8 -79 10 -14 2 -50 7
-80 10 -30 3 -71 8 -90 10 -329 39 -624 36 -854 -9 -380 -75 -713 -284 -942
-589 -56 -75 -139 -216 -131 -223 2 -2 36 35 75 83 176 220 364 359 618 457
81 31 260 84 309 91 11 1 31 5 45 8 24 6 75 15 133 23 15 2 39 6 55 9 145 27
721 27 907 0 17 -2 57 -7 90 -10 33 -4 61 -8 62 -9 2 -2 -34 -34 -79 -72 -212
-179 -211 -197 3 -52 l153 102 67 3 c37 1 83 -2 101 -7 18 -5 55 -11 82 -15
27 -3 52 -8 56 -10 3 -2 24 -6 46 -9 21 -2 82 -12 134 -21 52 -9 108 -18 123
-20 68 -9 114 -16 137 -20 27 -4 80 -11 175 -20 33 -4 76 -8 95 -10 266 -28
687 -21 900 15 30 5 73 12 95 15 22 4 48 8 57 11 10 3 30 7 45 10 68 12 245
66 343 104 69 27 235 110 292 147 65 41 107 36 388 -46 401 -118 598 -165 795
-188 76 -9 378 -9 425 0 19 4 59 10 88 13 73 9 72 19 -1 20 -72 0 -268 13
-276 18 -3 2 -33 7 -66 11 -47 5 -195 33 -315 60 -75 16 -308 79 -540 145
-155 44 -288 80 -295 80 -30 0 -20 19 56 110 101 120 114 142 68 110 -19 -13
-74 -57 -122 -97 -48 -40 -94 -74 -102 -74 -8 -1 -21 -2 -27 -3 -7 -1 -53 9
-103 21 -49 13 -99 26 -110 28 -11 3 -90 23 -175 45 -377 98 -581 127 -895
127 -104 0 -225 -3 -267 -8z m562 -144 c25 -3 74 -8 110 -11 36 -2 72 -7 80
-9 8 -2 38 -7 65 -10 44 -6 161 -24 250 -41 17 -2 46 -9 65 -14 19 -5 51 -12
70 -15 52 -9 221 -52 227 -59 10 -10 -222 -114 -335 -150 -123 -40 -250 -71
-328 -82 -27 -3 -51 -8 -54 -9 -3 -2 -41 -7 -85 -10 -44 -4 -93 -9 -110 -11
-45 -6 -374 -6 -425 0 -25 3 -88 8 -140 11 -52 3 -108 8 -125 10 -16 2 -59 6
-95 9 -67 6 -116 11 -185 20 -22 2 -67 7 -100 11 -67 7 -132 14 -185 20 -19 3
-96 12 -170 20 -74 9 -138 19 -143 24 -9 9 145 79 283 129 144 52 308 98 419
117 19 3 37 7 40 9 3 2 29 7 56 10 28 4 79 11 115 17 36 5 108 12 160 15 52 4
96 8 98 9 6 5 398 -4 442 -10z"/>
<path d="M9040 6872 c0 -12 143 -86 282 -146 242 -105 476 -164 730 -182 71
-6 77 -5 74 12 -2 11 -7 80 -11 154 -4 74 -8 136 -10 138 -2 2 -36 -8 -76 -22
-41 -14 -99 -29 -129 -35 -53 -10 -354 -9 -395 2 -11 2 -40 8 -65 12 -25 4
-54 9 -65 11 -56 11 -245 43 -279 48 -21 4 -42 9 -47 12 -5 3 -9 1 -9 -4z"/>
<path d="M4070 6809 c-268 -83 -515 -229 -689 -409 l-34 -35 33 -6 c18 -4 60
-5 93 -4 113 7 230 81 504 317 61 53 130 111 154 127 50 37 34 39 -61 10z"/>
<path d="M4471 6310 c-89 -24 -198 -72 -266 -119 -68 -46 -226 -181 -212 -181
4 0 51 22 104 49 116 58 256 107 358 125 107 19 278 25 361 12 151 -24 307
-72 417 -127 31 -16 57 -27 57 -25 0 6 -130 108 -176 138 -66 43 -159 86 -241
114 -107 36 -292 42 -402 14z"/>
<path d="M8580 6306 c-100 -26 -261 -105 -300 -146 -3 -3 -24 -21 -48 -39 -45
-35 -87 -75 -112 -107 -13 -17 -13 -18 0 -7 8 6 56 32 106 57 137 68 254 104
429 132 52 8 216 8 280 0 129 -17 306 -71 418 -128 33 -16 56 -25 52 -19 -9
16 -206 161 -217 161 -6 0 -22 8 -36 18 -40 28 -155 71 -230 86 -101 22 -242
18 -342 -8z"/>
</g>
</svg>
